<svg width="160" height="160" viewBox="0 0 160 160" fill="none" xmlns="http://www.w3.org/2000/svg">
  <rect width="160" height="160" rx="36" fill="url(#bg)"/>
  <circle cx="120" cy="40" r="20" fill="white" fill-opacity="0.12"/>
  <circle cx="34" cy="126" r="26" fill="white" fill-opacity="0.08"/>
  <path d="M80 35C58.5 35 42 52.8 42 74.6C42 92.7 53.4 108.1 69.5 113.6V125.9H90.5V113.6C106.6 108.1 118 92.7 118 74.6C118 52.8 101.5 35 80 35Z" fill="#142646"/>
  <path d="M98.4 73.2C98.4 85.4 90.2 95.2 80 95.2C69.8 95.2 61.6 85.4 61.6 73.2C61.6 61 69.8 51.2 80 51.2C90.2 51.2 98.4 61 98.4 73.2Z" fill="#FFD7C2"/>
  <path d="M62.5 69.3C68.2 67.2 74.6 62.7 79.2 56.4C85.9 64.5 93.5 69.6 98 70.8V61.5C98 51.4 89.9 43.2 80 43.2C70.1 43.2 62 51.4 62 61.5L62.5 69.3Z" fill="#1E355E"/>
  <path d="M52 132.4C52 116.1 65.3 102.8 81.6 102.8H82.4C98.7 102.8 112 116.1 112 132.4V160H52V132.4Z" fill="#203E70"/>
  <path d="M79.8 104.4L68.8 116.1L79.8 127L91 115.9L79.8 104.4Z" fill="#F7F9FF"/>
  <path d="M77.2 126.9H82.8L87.4 160H72.6L77.2 126.9Z" fill="#7FC6FF"/>
  <path d="M65.8 88.9C69.3 93.8 74.3 96.7 80 96.7C85.7 96.7 90.7 93.8 94.2 88.9C93 97.2 87.2 103.2 80 103.2C72.8 103.2 67 97.2 65.8 88.9Z" fill="#F6B9A7"/>
  <path d="M70 74.8C70 76.5 68.7 77.8 67 77.8C65.3 77.8 64 76.5 64 74.8C64 73.1 65.3 71.8 67 71.8C68.7 71.8 70 73.1 70 74.8Z" fill="#1F2A44"/>
  <path d="M96 74.8C96 76.5 94.7 77.8 93 77.8C91.3 77.8 90 76.5 90 74.8C90 73.1 91.3 71.8 93 71.8C94.7 71.8 96 73.1 96 74.8Z" fill="#1F2A44"/>
  <path d="M73.5 84.1C75.4 86.6 77.8 88 80.4 88C83 88 85.4 86.6 87.3 84.1" stroke="#E48C82" stroke-width="2.8" stroke-linecap="round"/>
  <defs>
    <linearGradient id="bg" x1="16" y1="10" x2="142" y2="148" gradientUnits="userSpaceOnUse">
      <stop stop-color="#7CB9FF"/>
      <stop offset="0.52" stop-color="#7CE2D2"/>
      <stop offset="1" stop-color="#B4F4C6"/>
    </linearGradient>
  </defs>
</svg>
